<svg xmlns="http://www.w3.org/2000/svg" version="1.1" xmlns:xlink="http://www.w3.org/1999/xlink" xmlns:svgjs="http://svgjs.com/svgjs" width="1440" height="280" preserveAspectRatio="none" viewBox="0 0 1440 280"><g mask="url(&quot;#SvgjsMask1049&quot;)" fill="none"><rect width="1440" height="280" x="0" y="0" fill="rgba(234, 234, 234, 1)"></rect><path d="M808 128L807 283" stroke-width="10" stroke="url(#SvgjsLinearGradient1050)" stroke-linecap="round" class="Down"></path><path d="M1316 28L1315 -166" stroke-width="10" stroke="url(#SvgjsLinearGradient1051)" stroke-linecap="round" class="Up"></path><path d="M81 172L80 377" stroke-width="6" stroke="url(#SvgjsLinearGradient1051)" stroke-linecap="round" class="Up"></path><path d="M142 251L141 340" stroke-width="10" stroke="url(#SvgjsLinearGradient1050)" stroke-linecap="round" class="Down"></path><path d="M747 245L746 405" stroke-width="8" stroke="url(#SvgjsLinearGradient1050)" stroke-linecap="round" class="Down"></path><path d="M47 230L46 304" stroke-width="6" stroke="url(#SvgjsLinearGradient1051)" stroke-linecap="round" class="Up"></path><path d="M1218 37L1217 -75" stroke-width="6" stroke="url(#SvgjsLinearGradient1050)" stroke-linecap="round" class="Down"></path><path d="M1101 19L1100 160" stroke-width="6" stroke="url(#SvgjsLinearGradient1051)" stroke-linecap="round" class="Up"></path><path d="M751 184L750 -16" stroke-width="10" stroke="url(#SvgjsLinearGradient1050)" stroke-linecap="round" class="Down"></path><path d="M71 84L70 177" stroke-width="8" stroke="url(#SvgjsLinearGradient1050)" stroke-linecap="round" class="Down"></path><path d="M1214 82L1213 -6" stroke-width="10" stroke="url(#SvgjsLinearGradient1050)" stroke-linecap="round" class="Down"></path><path d="M200 182L199 297" stroke-width="8" stroke="url(#SvgjsLinearGradient1050)" stroke-linecap="round" class="Down"></path><path d="M119 97L118 266" stroke-width="8" stroke="url(#SvgjsLinearGradient1050)" stroke-linecap="round" class="Down"></path><path d="M433 8L432 -77" stroke-width="8" stroke="url(#SvgjsLinearGradient1050)" stroke-linecap="round" class="Down"></path><path d="M962 71L961 206" stroke-width="8" stroke="url(#SvgjsLinearGradient1050)" stroke-linecap="round" class="Down"></path><path d="M1035 175L1034 256" stroke-width="6" stroke="url(#SvgjsLinearGradient1051)" stroke-linecap="round" class="Up"></path><path d="M578 149L577 -37" stroke-width="8" stroke="url(#SvgjsLinearGradient1050)" stroke-linecap="round" class="Down"></path><path d="M477 58L476 169" stroke-width="8" stroke="url(#SvgjsLinearGradient1051)" stroke-linecap="round" class="Up"></path><path d="M449 90L448 -9" stroke-width="6" stroke="url(#SvgjsLinearGradient1051)" stroke-linecap="round" class="Up"></path><path d="M318 65L317 -115" stroke-width="8" stroke="url(#SvgjsLinearGradient1051)" stroke-linecap="round" class="Up"></path><path d="M1358 135L1357 301" stroke-width="8" stroke="url(#SvgjsLinearGradient1050)" stroke-linecap="round" class="Down"></path><path d="M1148 145L1147 25" stroke-width="8" stroke="url(#SvgjsLinearGradient1050)" stroke-linecap="round" class="Down"></path><path d="M477 104L476 189" stroke-width="10" stroke="url(#SvgjsLinearGradient1051)" stroke-linecap="round" class="Up"></path><path d="M368 237L367 444" stroke-width="8" stroke="url(#SvgjsLinearGradient1050)" stroke-linecap="round" class="Down"></path><path d="M1345 24L1344 -119" stroke-width="8" stroke="url(#SvgjsLinearGradient1051)" stroke-linecap="round" class="Up"></path><path d="M1359 269L1358 168" stroke-width="8" stroke="url(#SvgjsLinearGradient1051)" stroke-linecap="round" class="Up"></path><path d="M1190 268L1189 66" stroke-width="6" stroke="url(#SvgjsLinearGradient1050)" stroke-linecap="round" class="Down"></path><path d="M946 13L945 -98" stroke-width="10" stroke="url(#SvgjsLinearGradient1050)" stroke-linecap="round" class="Down"></path><path d="M773 4L772 -189" stroke-width="10" stroke="url(#SvgjsLinearGradient1051)" stroke-linecap="round" class="Up"></path><path d="M519 93L518 215" stroke-width="10" stroke="url(#SvgjsLinearGradient1051)" stroke-linecap="round" class="Up"></path><path d="M984 59L983 229" stroke-width="8" stroke="url(#SvgjsLinearGradient1051)" stroke-linecap="round" class="Up"></path><path d="M540 272L539 100" stroke-width="8" stroke="url(#SvgjsLinearGradient1051)" stroke-linecap="round" class="Up"></path><path d="M949 129L948 312" stroke-width="6" stroke="url(#SvgjsLinearGradient1051)" stroke-linecap="round" class="Up"></path><path d="M70 27L69 -71" stroke-width="6" stroke="url(#SvgjsLinearGradient1050)" stroke-linecap="round" class="Down"></path><path d="M205 240L204 81" stroke-width="10" stroke="url(#SvgjsLinearGradient1051)" stroke-linecap="round" class="Up"></path><path d="M646 6L645 -77" stroke-width="6" stroke="url(#SvgjsLinearGradient1051)" stroke-linecap="round" class="Up"></path></g><defs><mask id="SvgjsMask1049"><rect width="1440" height="280" fill="#ffffff"></rect></mask><linearGradient x1="0%" y1="0%" x2="0%" y2="100%" id="SvgjsLinearGradient1050"><stop stop-color="rgba(202, 202, 225, 0)" offset="0"></stop><stop stop-color="rgba(202, 202, 225, 1)" offset="1"></stop></linearGradient><linearGradient x1="0%" y1="100%" x2="0%" y2="0%" id="SvgjsLinearGradient1051"><stop stop-color="rgba(202, 202, 225, 0)" offset="0"></stop><stop stop-color="rgba(202, 202, 225, 1)" offset="1"></stop></linearGradient></defs></svg>